<svg viewBox="0 0 64 64" fill="none" xmlns="http://www.w3.org/2000/svg" role="img" aria-label="Robinhood Chain">
  <defs>
    <linearGradient id="rh-g" x1="16" y1="6" x2="48" y2="58" gradientUnits="userSpaceOnUse">
      <stop offset="0" stop-color="#B4FF3C"/>
      <stop offset="1" stop-color="#00C805"/>
    </linearGradient>
  </defs>
  <!-- Stylized Robinhood-style feather / plume -->
  <path d="M47 7c-3 0-7 1-11 4-9 6-15 16-17 31l-2 14 12-7c-1 4-3 8-6 11 14-3 25-15 27-31 1-8 1-16-3-22-.3.1-.6.2-1 .3z" fill="url(#rh-g)"/>
  <path d="M31 48c4-16 10-27 16-38" stroke="#063d05" stroke-width="1.6" stroke-linecap="round" opacity="0.55"/>
  <path d="M24 44c5 1 10 0 15-3M22 51c4 1 8 1 12-1" stroke="#063d05" stroke-width="1.4" stroke-linecap="round" opacity="0.4"/>
</svg>
